<svg viewBox="0 0 8 5" fill="currentColor" xmlns="http://www.w3.org/2000/svg">
<path fill="currentColor" id="caret-arrow" d="M3.6465 0.646507C3.7326 0.560419 3.84715 0.508703 3.96866 0.501062C4.09017 0.493422 4.2103 0.530381 4.3065 0.605007L4.3535 0.646507L7.3535 3.64651L7.395 3.69351L7.422 3.73201L7.449 3.78001L7.4575 3.79801L7.471 3.83151L7.487 3.88551L7.492 3.91201L7.497 3.94201L7.499 3.97051L7.5 4.00001L7.499 4.02951L7.4965 4.05851L7.492 4.08851L7.487 4.11451L7.471 4.16851L7.4575 4.20201L7.4225 4.26801L7.39 4.31301L7.3535 4.35351L7.3065 4.39501L7.268 4.42201L7.22 4.44901L7.202 4.45751L7.1685 4.47101L7.1145 4.48701L7.088 4.49201L7.058 4.49701L7.0295 4.49901L7 4.50001H1C0.574 4.50001 0.3515 4.00701 0.6085 3.68851L0.6465 3.64651L3.6465 0.646507Z"/>
</svg>
