<svg viewBox="0 0 12 12" fill="none" xmlns="http://www.w3.org/2000/svg">
<path id="dashboard-icon" d="M2 5.5C1.85833 5.5 1.73967 5.452 1.644 5.356C1.54833 5.26 1.50033 5.14133 1.5 5V2C1.5 1.85833 1.548 1.73967 1.644 1.644C1.74 1.54833 1.85867 1.50033 2 1.5H5C5.14167 1.5 5.2605 1.548 5.3565 1.644C5.4525 1.74 5.50033 1.85867 5.5 2V5C5.5 5.14167 5.452 5.2605 5.356 5.3565C5.26 5.4525 5.14133 5.50033 5 5.5H2ZM7 5.5C6.85833 5.5 6.73967 5.452 6.644 5.356C6.54833 5.26 6.50033 5.14133 6.5 5V2C6.5 1.85833 6.548 1.73967 6.644 1.644C6.74 1.54833 6.85867 1.50033 7 1.5H10C10.1417 1.5 10.2605 1.548 10.3565 1.644C10.4525 1.74 10.5003 1.85867 10.5 2V5C10.5 5.14167 10.452 5.2605 10.356 5.3565C10.26 5.4525 10.1413 5.50033 10 5.5H7ZM2 10.5C1.85833 10.5 1.73967 10.452 1.644 10.356C1.54833 10.26 1.50033 10.1413 1.5 10V7C1.5 6.85833 1.548 6.73967 1.644 6.644C1.74 6.54833 1.85867 6.50033 2 6.5H5C5.14167 6.5 5.2605 6.548 5.3565 6.644C5.4525 6.74 5.50033 6.85867 5.5 7V10C5.5 10.1417 5.452 10.2605 5.356 10.3565C5.26 10.4525 5.14133 10.5003 5 10.5H2ZM8.5 10.5C8.35833 10.5 8.23967 10.452 8.144 10.356C8.04833 10.26 8.00033 10.1413 8 10V9H6.9875C6.84583 9 6.72917 8.952 6.6375 8.856C6.54583 8.76 6.5 8.64133 6.5 8.5C6.5 8.35867 6.548 8.24 6.644 8.144C6.74 8.048 6.85867 8 7 8H8V6.9875C8 6.84583 8.048 6.72917 8.144 6.6375C8.24 6.54583 8.35867 6.5 8.5 6.5C8.64133 6.5 8.76017 6.548 8.8565 6.644C8.95283 6.74 9.00067 6.85867 9 7V8H10.0125C10.1542 8 10.2708 8.048 10.3625 8.144C10.4542 8.24 10.5 8.35867 10.5 8.5C10.5 8.64133 10.452 8.76017 10.356 8.8565C10.26 8.95283 10.1413 9.00067 10 9H9V10.0125C9 10.1542 8.952 10.2708 8.856 10.3625C8.76 10.4542 8.64133 10.5 8.5 10.5Z" fill="currentColor"/>
</svg>
