<svg viewBox="0 0 12 12" fill="none" xmlns="http://www.w3.org/2000/svg">
<path id="edit-icon" d="M2.5 10.5C2.225 10.5 1.98967 10.4022 1.794 10.2065C1.59833 10.0108 1.50033 9.77532 1.5 9.49999V2.49999C1.5 2.22499 1.598 1.98965 1.794 1.79399C1.99 1.59832 2.22533 1.50032 2.5 1.49999H6.9625L5.9625 2.49999H2.5V9.49999H9.5V6.02499L10.5 5.02499V9.49999C10.5 9.77499 10.4022 10.0105 10.2065 10.2065C10.0108 10.4025 9.77533 10.5003 9.5 10.5H2.5ZM4.5 7.49999V5.37499L9.0875 0.787488C9.1875 0.687488 9.3 0.612488 9.425 0.562488C9.55 0.512488 9.675 0.487488 9.8 0.487488C9.93333 0.487488 10.0605 0.512488 10.1815 0.562488C10.3025 0.612488 10.4128 0.687488 10.5125 0.787488L11.2125 1.49999C11.3042 1.59999 11.375 1.71049 11.425 1.83149C11.475 1.95249 11.5 2.07532 11.5 2.19999C11.5 2.32465 11.4772 2.44765 11.4315 2.56899C11.3858 2.69032 11.3128 2.80065 11.2125 2.89999L6.625 7.49999H4.5ZM5.5 6.49999H6.2L9.1 3.59999L8.75 3.24999L8.3875 2.89999L5.5 5.78749V6.49999Z" fill="currentColor"/>
</svg>
