<svg viewBox="0 0 12 12" fill="" xmlns="http://www.w3.org/2000/svg">
<path id="notification-icon" d="M2 9.5V8.5H3V5C3 4.30833 3.20833 3.69383 3.625 3.1565C4.04167 2.61917 4.58333 2.267 5.25 2.1V1.75C5.25 1.54167 5.323 1.36467 5.469 1.219C5.615 1.07333 5.792 1.00033 6 1C6.208 0.999668 6.38517 1.07267 6.5315 1.219C6.67783 1.36533 6.75067 1.54233 6.75 1.75V2.1C7.41667 2.26667 7.95833 2.61883 8.375 3.1565C8.79167 3.69417 9 4.30867 9 5V8.5H10V9.5H2ZM6 11C5.725 11 5.48967 10.9022 5.294 10.7065C5.09833 10.5108 5.00033 10.2753 5 10H7C7 10.275 6.90217 10.5105 6.7065 10.7065C6.51083 10.9025 6.27533 11.0003 6 11Z" fill="currentColor"/>
</svg>
