<svg  viewBox="0 0 12 12" fill="none" xmlns="http://www.w3.org/2000/svg">
<path id="printer-icon" d="M4.9 10.5C4.8 10.3 4.65 10.1 4.6 9.85L4.4 9.5H4V7H6.5C7.1 6.7 7.8 6.5 8.5 6.5C9.45 6.5 10.3 6.8 11 7.3V5.5C11 4.65 10.35 4 9.5 4H2.5C1.65 4 1 4.65 1 5.5V8.5H3V10.5H4.9ZM9.5 5C9.8 5 10 5.2 10 5.5C10 5.8 9.8 6 9.5 6C9.2 6 9 5.8 9 5.5C9 5.2 9.2 5 9.5 5ZM9 3.5H3V1.5H9V3.5ZM8.5 9C8.8 9 9 9.2 9 9.5C9 9.8 8.8 10 8.5 10C8.2 10 8 9.8 8 9.5C8 9.2 8.2 9 8.5 9ZM8.5 7.5C7.15 7.5 5.95 8.35 5.5 9.5C5.95 10.65 7.15 11.5 8.5 11.5C9.85 11.5 11.05 10.65 11.5 9.5C11.05 8.35 9.85 7.5 8.5 7.5ZM8.5 10.75C7.8 10.75 7.25 10.2 7.25 9.5C7.25 8.8 7.8 8.25 8.5 8.25C9.2 8.25 9.75 8.8 9.75 9.5C9.75 10.2 9.2 10.75 8.5 10.75Z" fill="currentColor"/>
</svg>
